<svg width="379" height="118" viewBox="0 0 379 118" fill="none" xmlns="http://www.w3.org/2000/svg">
<path d="M105.538 57.3076C105.538 89.6153 81.8462 109 56 109" stroke="#F5F3F8" stroke-width="17.2308"/>
<rect y="18.5391" width="17.2308" height="56" rx="8.61539" transform="rotate(-90 0 18.5391)" fill="#7A00E6"/>
<rect x="51.6934" y="48.6924" width="17.2308" height="30.1538" rx="8.61539" transform="rotate(-90 51.6934 48.6924)" fill="#7A00E6"/>
<rect x="49.2559" y="-3" width="17.2308" height="81.8461" rx="8.61539" transform="rotate(37 49.2559 -3)" fill="#F5F3F8"/>
<rect y="70.2314" width="17.2308" height="116.308" rx="8.61539" transform="rotate(-90 0 70.2314)" fill="black"/>
<rect x="73.3086" y="27.1543" width="17.2308" height="43.0769" rx="8.61539" transform="rotate(37 73.3086 27.1543)" fill="#F5F3F8"/>
<rect x="1.28125" y="54.2686" width="113.803" height="14.7032" rx="7.35162" fill="#111111" stroke="#F5F3F8" stroke-width="2.5"/>
<path d="M185.969 24.4488H160.06V45.282H183.938V54.9978H160.06V84H148.556V14.6847H185.969V24.4488ZM240.251 84H229.037V76.1694H228.843C225.589 82.1632 220.53 85.1601 213.666 85.1601C201.968 85.1601 196.119 78.1351 196.119 64.0851V34.5029H207.333V62.9251C207.333 71.8191 210.765 76.2661 217.629 76.2661C220.948 76.2661 223.671 75.0415 225.798 72.5925C227.957 70.1434 229.037 66.937 229.037 62.9734V34.5029H240.251V84ZM291.44 39.1916L264.71 75.251H291.343V84H249V79.7947L276.31 43.2519H251.61V34.5029H291.44V39.1916Z" fill="#F5F3F8"/>
<path d="M325.842 39.1916L299.111 75.251H325.745V84H283.402V79.7947L310.712 43.2519H286.012V34.5029H325.842V39.1916ZM378.191 34.5029L355.859 91.9273C351.219 102.175 344.709 107.298 336.331 107.298C333.978 107.298 332.013 107.089 330.434 106.67V97.341C332.206 97.9211 333.817 98.2111 335.267 98.2111C339.457 98.2111 342.582 96.1487 344.645 92.0239L347.98 83.9033L328.307 34.5029H340.729L352.524 70.4656C352.653 70.9168 352.943 72.1091 353.394 74.0426H353.635C353.797 73.3014 354.087 72.1413 354.506 70.5623L366.88 34.5029H378.191Z" fill="#F5F3F8"/>
</svg>
